<svg width="32" height="32" viewBox="0 0 32 32" class="size-16 lg:size-20 scale-110" xmlns="http://www.w3.org/2000/svg"><path fill-rule="evenodd" clip-rule="evenodd" d="M26 13.5C26 15.7244 24.386 17.6661 21.9885 18.7023C21.9961 18.8009 22 18.9001 22 19C22 22.0376 18.4183 24.5 14 24.5C9.58172 24.5 6 22.0376 6 19C6 16.9484 7.63395 15.1591 10.056 14.2137C10.019 13.9797 10 13.7415 10 13.5C10 10.1863 13.5817 7.5 18 7.5C22.4183 7.5 26 10.1863 26 13.5ZM8.90918 18.5001C8.90918 17.6968 9.44495 16.9672 10.3174 16.4287C11.1646 17.631 13.6124 18.5001 16.5 18.5001C17.4145 18.5001 18.2849 18.4129 19.0743 18.2556C19.0854 18.3362 19.091 18.4178 19.091 18.5001C19.091 20.1569 16.8117 21.5001 14.0001 21.5001C11.1885 21.5001 8.90918 20.1569 8.90918 18.5001Z" fill="currentColor"></path></svg>