<?xml version="1.0"?>
<svg width="16" height="16" xmlns="http://www.w3.org/2000/svg" xmlns:svg="http://www.w3.org/2000/svg" class="size-16 lg:size-20 scale-110">
 <g class="layer">
  <title>Layer 1</title>
  <path clip-rule="evenodd" d="m15.22,6.78c0,1.6 -1.17,3 -2.89,3.74q0.01,0.12 0.01,0.22c0,2.19 -2.57,3.96 -5.76,3.96s-5.76,-1.77 -5.76,-3.96c0,-1.48 1.18,-2.76 2.92,-3.45a3.32,3.32 0 0 1 -0.04,-0.52c0,-2.39 2.57,-4.32 5.76,-4.32s5.76,1.93 5.76,4.32m-12.31,3.6c0,-0.58 0.37,-1.11 1,-1.49c0.6,0.88 2.38,1.49 4.45,1.49c0.67,0 1.29,-0.05 1.85,-0.17q0.01,0.09 0.01,0.17c0,1.2 -1.65,2.16 -3.68,2.16s-3.68,-0.96 -3.68,-2.16" fill="currentColor" fill-rule="evenodd" id="svg_1"/>
 </g>
</svg>